<svg version="1.1" id="Layer_1" xmlns="http://www.w3.org/2000/svg" xmlns:xlink="http://www.w3.org/1999/xlink" x="0px" y="0px"
	 width="100%" viewBox="0 0 1024 480" enable-background="new 0 0 1024 480" xml:space="preserve">
<path fill="#000000" opacity="1.000000" stroke="none" 
	d="
M215.515564,309.770508 
	C210.088028,311.833069 204.811783,312.399292 199.445190,312.405090 
	C169.622284,312.437256 139.799377,312.480377 109.976463,312.498077 
	C103.702148,312.501801 102.783180,311.109070 103.697876,304.750244 
	C104.288109,300.647003 104.524323,296.365692 103.431068,292.339386 
	C102.308495,288.205109 104.269470,286.713867 107.702080,286.201141 
	C109.827377,285.883728 112.021812,285.975830 114.185242,285.975159 
	C142.842346,285.966461 171.500031,285.877808 200.156158,286.047363 
	C207.002213,286.087891 212.194641,284.310364 214.832397,277.442841 
	C216.858322,272.168335 215.160812,263.692841 210.907944,259.379181 
	C207.669052,256.094025 203.465927,255.966537 199.273148,255.963364 
	C180.779358,255.949432 162.282089,256.195648 143.792831,255.910629 
	C130.383377,255.703903 118.819305,251.089203 110.131721,240.225479 
	C102.267578,230.391418 100.970505,219.122162 102.520378,207.302521 
	C104.201820,194.479492 111.017654,184.952072 122.107964,178.226059 
	C128.209793,174.525436 134.865585,173.186005 141.671677,173.103683 
	C164.991638,172.821533 188.316345,172.937820 211.639191,172.879333 
	C215.469116,172.869720 219.298538,172.704224 223.128586,172.684723 
	C227.099747,172.664505 229.392487,174.256134 229.180313,178.678192 
	C228.980911,182.833649 229.158417,187.006653 229.149399,191.171890 
	C229.133865,198.361145 228.471024,199.030762 221.037613,199.049637 
	C211.041031,199.075027 201.044312,199.041153 191.047653,199.039703 
	C175.386215,199.037445 159.723602,199.151489 144.063904,198.987411 
	C137.860123,198.922409 132.847946,200.819809 129.800156,206.329102 
	C126.405128,212.466110 127.549225,218.415298 131.226410,224.126709 
	C134.081604,228.561371 138.487991,228.971985 143.084503,228.976547 
	C161.578323,228.994858 180.084137,228.580902 198.562408,229.119781 
	C214.961777,229.598022 229.465271,235.466949 236.878891,250.987930 
	C246.658569,271.462433 242.948792,299.425934 215.515564,309.770508 
z"/>
<path fill="#000000" opacity="1.000000" stroke="none" 
	d="
M604.889771,312.414764 
	C599.744934,312.422974 595.080139,312.437103 590.415405,312.436554 
	C587.623718,312.436218 586.137573,311.282196 586.137085,308.232269 
	C586.132263,280.439362 586.022278,252.646408 586.047974,224.853561 
	C586.051147,221.427689 585.566711,217.958679 587.348694,214.601135 
	C590.640930,208.397919 596.330872,206.699463 602.464111,206.771072 
	C622.603577,207.006195 642.782166,205.574738 662.878601,207.653442 
	C680.425842,209.468445 698.482727,222.902054 701.703125,243.524918 
	C704.248047,259.822510 702.392395,276.100586 703.091553,292.369354 
	C703.306030,297.358795 703.043274,302.367645 703.204895,307.360962 
	C703.312988,310.697601 701.891968,312.469025 698.616333,312.509491 
	C692.623535,312.583557 686.628235,312.561920 680.635437,312.477753 
	C677.037292,312.427246 676.532410,310.137756 676.555847,307.037079 
	C676.684509,290.044342 676.654114,273.050385 676.659607,256.056824 
	C676.661072,251.534714 676.360413,247.065201 674.021301,243.004593 
	C670.265381,236.484589 664.392090,233.345886 657.113281,233.224930 
	C643.455627,232.998047 629.791504,233.191803 616.130981,233.089157 
	C611.947693,233.057724 611.290527,235.337357 611.303345,238.857300 
	C611.385376,261.348572 611.230957,283.841187 611.417908,306.331146 
	C611.456299,310.938568 609.866577,312.846558 604.889771,312.414764 
z"/>
<path fill="#000000" opacity="1.000000" stroke="none" 
	d="
M562.337219,237.012634 
	C564.564697,246.154556 565.289856,255.033768 565.135376,264.069763 
	C564.896057,278.064941 564.964661,292.070099 565.200195,306.066010 
	C565.280945,310.861145 563.542419,312.726044 558.787964,312.461212 
	C554.135559,312.202087 549.453857,312.271667 544.792603,312.425934 
	C540.402710,312.571259 538.542725,310.928436 538.592346,306.280396 
	C538.781006,288.616302 538.498596,270.946777 538.728210,253.283676 
	C538.854309,243.581924 531.507385,233.335403 519.558899,233.197266 
	C505.894897,233.039322 492.227722,233.170181 478.562134,233.117172 
	C475.431274,233.105026 474.115845,234.525269 473.927826,237.622116 
	C472.836182,255.603256 473.114288,273.593628 473.753784,291.569794 
	C473.962128,297.426880 473.348083,303.214172 473.399078,309.037537 
	C473.419495,311.366089 472.114014,312.347137 469.951447,312.355988 
	C464.118866,312.379883 458.285828,312.397797 452.453522,312.351807 
	C449.266907,312.326660 448.396545,310.673462 448.409241,307.504059 
	C448.523560,279.011749 449.143677,250.516953 448.155396,222.026489 
	C447.839417,212.917282 451.299622,208.826340 460.344940,207.503113 
	C471.116882,205.927368 481.969727,206.818024 492.783691,206.755692 
	C505.246399,206.683838 517.815796,205.669571 530.082092,208.743942 
	C545.429382,212.590500 556.548340,221.503403 562.337219,237.012634 
z"/>
<path fill="#000000" opacity="1.000000" stroke="none" 
	d="
M285.155609,282.000000 
	C285.161163,290.496368 285.010651,298.497131 285.234589,306.487366 
	C285.353455,310.728821 283.929474,312.651550 279.509796,312.450500 
	C274.522186,312.223633 269.514130,312.289551 264.519745,312.415619 
	C260.315735,312.521667 258.625153,310.841492 258.650848,306.476013 
	C258.790161,282.820892 258.710663,259.164429 258.704102,235.508453 
	C258.697998,213.518387 258.677155,191.528320 258.688690,169.538254 
	C258.691772,163.680313 259.529633,162.824417 265.247253,162.754608 
	C269.577942,162.701721 273.910095,162.723022 278.241180,162.757370 
	C284.598969,162.807800 285.142883,163.319687 285.145355,169.550781 
	C285.160126,206.867188 285.154205,244.183594 285.155609,282.000000 
z"/>
<path fill="#000000" opacity="1.000000" stroke="none" 
	d="
M310.010071,207.025375 
	C323.955994,207.004440 337.481659,205.391403 350.788208,208.560913 
	C363.327972,211.547745 375.519836,223.080154 375.399353,239.095016 
	C375.226471,262.077240 375.438202,285.063080 375.617065,308.046356 
	C375.640808,311.102356 374.463989,312.374878 371.596222,312.377960 
	C365.766815,312.384186 359.937042,312.398621 354.108185,312.336395 
	C351.171387,312.305054 350.197937,310.721588 350.227142,307.802399 
	C350.433929,287.155273 350.799133,266.502594 350.506226,245.860336 
	C350.338226,234.021606 345.766327,232.890900 337.611786,233.058792 
	C325.627228,233.305527 313.638092,233.320114 301.651581,233.484680 
	C296.368103,233.557220 294.414490,231.611786 294.453827,226.489014 
	C294.487061,222.166824 294.097290,217.839981 294.169952,213.519836 
	C294.261902,208.048630 295.653290,206.721710 301.033569,206.680893 
	C303.858826,206.659470 306.686157,206.908188 310.010071,207.025375 
z"/>
<path fill="#000000" opacity="1.000000" stroke="none" 
	d="
M424.224823,295.969482 
	C424.266052,300.120117 424.107819,303.793396 424.410126,307.428314 
	C424.676453,310.630951 423.412659,312.277710 420.342896,312.333771 
	C414.522614,312.440063 408.693817,312.499786 402.878571,312.294769 
	C399.598572,312.179138 397.794861,310.595001 399.622864,307.049469 
	C400.169891,305.988525 400.386810,304.928375 400.262604,303.699341 
	C397.464386,276.013977 398.809998,248.286575 399.421753,220.564682 
	C399.468964,218.425781 399.164032,216.260651 398.839203,214.135773 
	C398.131195,209.504501 400.302582,207.015366 404.708893,206.781982 
	C409.681152,206.518616 414.693726,206.548691 419.663055,206.860565 
	C422.961517,207.067551 425.415833,208.723541 424.876160,212.674591 
	C423.518951,222.611694 424.161804,232.604904 424.108002,242.570999 
	C424.012756,260.205078 424.172516,277.840515 424.224823,295.969482 
z"/>
<path fill="#000000" opacity="1.000000" stroke="none" 
	d="
M854.000000,274.012085 
	C835.363403,274.016541 817.226807,274.028595 799.090210,274.022583 
	C791.166687,274.019958 787.055786,267.515472 790.711060,260.511139 
	C792.245789,257.570068 795.386292,257.610443 798.221680,257.737518 
	C826.143555,258.989288 854.073669,257.539825 881.998108,258.023621 
	C888.815430,258.141693 895.641602,257.733948 902.459717,257.835663 
	C908.744080,257.929443 909.309998,258.910706 909.208862,267.564911 
	C909.142334,273.250977 908.438416,274.016357 902.420349,274.031586 
	C886.447021,274.071991 870.473450,274.024719 854.000000,274.012085 
z"/>
<path fill="#000000" opacity="1.000000" stroke="none" 
	d="
M908.872009,238.404083 
	C907.112244,241.279770 904.568726,241.357346 902.051453,241.358505 
	C866.908630,241.374863 831.765747,241.398499 796.623047,241.344620 
	C791.080017,241.336121 790.102356,240.115967 790.088440,234.369980 
	C790.070801,227.100006 791.006470,225.644409 796.503235,225.636749 
	C832.312012,225.586929 868.120972,225.648544 903.929749,225.585846 
	C907.825317,225.579025 909.418457,227.243622 909.222107,230.999771 
	C909.100464,233.325027 909.084534,235.655807 908.872009,238.404083 
z"/>
<path fill="#000000" opacity="1.000000" stroke="none" 
	d="
M759.737061,180.260590 
	C766.833069,187.316971 773.595520,194.210648 780.577820,200.873978 
	C783.884033,204.029053 783.713806,206.473969 780.507874,209.611053 
	C769.800842,220.088089 759.271057,230.746429 748.684875,241.346771 
	C745.069031,244.967499 742.016663,245.388443 739.194031,242.597763 
	C733.058472,236.531708 732.657471,234.715317 736.981689,230.353363 
	C743.895081,223.379669 750.873657,216.467728 757.945374,209.654938 
	C762.211670,205.544785 762.349731,204.828705 757.963928,200.503174 
	C751.087463,193.721283 744.128723,187.022614 737.272949,180.220078 
	C732.769836,175.751968 733.275513,173.175003 739.524719,167.595261 
	C742.906189,164.576019 745.683960,165.106201 749.241333,169.112015 
	C752.550659,172.838516 756.067993,176.380280 759.737061,180.260590 
z"/>
<path fill="#000000" opacity="1.000000" stroke="none" 
	d="
M804.609009,306.789246 
	C802.995300,306.924713 801.836182,307.039825 800.675110,307.065613 
	C790.707947,307.287415 787.891418,303.689087 790.617676,294.191193 
	C791.323120,291.733612 793.264404,290.825623 795.572754,290.821808 
	C812.351562,290.793915 829.131531,290.738831 845.908630,290.921295 
	C849.287720,290.958038 851.280273,292.827820 850.799316,296.821930 
	C849.531433,307.351288 849.651001,306.980194 838.385498,306.565430 
	C827.294922,306.157074 816.171692,306.637207 804.609009,306.789246 
z"/>
<path fill="#000000" opacity="1.000000" stroke="none" 
	d="
M399.332397,168.807007 
	C398.326965,164.357651 400.526184,162.835739 404.076569,162.760239 
	C409.224762,162.650772 414.377686,162.713074 419.527893,162.768051 
	C423.466919,162.810089 424.978210,164.966827 425.165192,168.801666 
	C425.392303,173.459274 423.889313,178.005325 424.666901,182.699295 
	C425.032623,184.907089 423.248108,186.131271 421.281342,186.179642 
	C415.139984,186.330658 408.985046,186.420395 402.850983,186.162491 
	C399.983521,186.041931 398.364227,184.445816 399.365784,181.066711 
	C400.517365,177.181503 400.054413,173.176453 399.332397,168.807007 
z"/>
</svg>